<svg id="Layer_1" data-name="Layer 1" xmlns="http://www.w3.org/2000/svg" viewBox="0 0 1025 1025"><defs><style>.cls-1{fill:#fff;}.cls-2{fill:none;stroke:#fff;stroke-miterlimit:10;stroke-width:35px;}</style></defs><path class="cls-1" d="M1376.76,682l-14.51-1.32c-12.54-1.13-25-2.92-37.42-5a537.35,537.35,0,0,1-62.73-13.89c-23.58-6.81-46.56-15-67.28-28.24-8.19-5.23-15.68-11.25-21.64-18.84-11.53-14.67-12.62-30.35-4.52-46.8,4.43-9,10.64-16.77,17.66-24,9.29-9.54,19.76-17.75,30.46-25.75,26.19-19.58,49.66-41.75,68.32-68.38,14.58-20.8,25.41-43.2,29.58-68.19,5.59-33.61-1.73-64.25-23.57-91.28a138.2,138.2,0,0,0-32.41-28.73,34.64,34.64,0,0,1-7.9-6.56c-5.14-6.12-5.46-12.51-1-19.08,4.81-7,11.71-11.72,18.9-16,15.31-9.19,31.88-15.82,48.69-21.91,12.3-4.45,24.82-8.29,37.38-12h1c2.67,8.27,5.2,16.59,8.05,24.81,5,14.55,10.62,28.9,18.41,42.33,3.2,5.51,6.75,10.78,11.72,15.07,3.27,2.82,7.16,3.57,11.25,4.14a526.69,526.69,0,0,1,81,17.74c27.73,8.47,54.41,19.3,79.52,33.57,19.38,11,37.48,23.66,53,39.52,5.16,5.27,10.09,10.77,13.4,17.34,3.44,6.81,1.58,6.94-3.82,7.76-32.31,4.94-64.21,11.8-95.91,19.56Q1488,418.75,1444.14,432c-2.35.71-2.91,1.43-2.13,3.82a179.79,179.79,0,0,1,7.12,35.12,250,250,0,0,1,1.5,34.81,303.65,303.65,0,0,1-10.82,72.54c-9.68,35.62-24.79,69-44,100.7-.94,1.56-2,2.72-3.87,3Zm127.4-281.08c19.51-5.37,39-7.75,58.44-10.1,9.39-1.13,18.79-2.14,28.21-3.11q15.27-1.56,30.58-2.93c2.6-.24,2.87-.53,1.39-2.62a68.61,68.61,0,0,0-10.34-11.35c-16-14.36-33.63-26.66-51.53-38.64-4.06-2.72-4.09-2.68-6.32,1.73-.19.38-.39.75-.6,1.12-6.23,11.45-14,21.91-22,32.23C1523.21,378.58,1514,389.62,1504.16,400.87ZM1427.91,559.5a126.09,126.09,0,0,1-17.54,9.26c-24.23,11.07-49,21-73.76,30.84-.74.3-2,.25-2,1.25s1,1.33,1.69,1.79a60.81,60.81,0,0,0,13.61,6.31c19,6.57,38.6,10.6,58.3,14.35a2.27,2.27,0,0,0,2.75-1.18,51.41,51.41,0,0,0,5.27-11.24c4.74-13.5,7.61-27.44,10-41.46C1426.8,566.23,1427.32,563,1427.91,559.5Zm117.55-230c-32.74,9.51-64.48,21.43-96.84,33a97,97,0,0,1,10.92,8.37c10,9.23,18.41,19.73,26.06,30.82,1.82,2.63,1.82,2.63,4.07.38a365,365,0,0,0,47.85-58.86A95.92,95.92,0,0,0,1545.46,329.5ZM1183,573.91c.81-.16,2.35-.42,3.87-.75,22.67-5,44.84-11.65,67-18.2,1.59-.47,1.56-1.05,1-2.32-5.78-13.54-10.06-27.45-10.94-42.17-.12-2.05-.63-2.45-2.61-1.47-17.42,8.6-33,19.48-45.17,34.46-6.89,8.48-12.41,17.68-15.52,28.13C1180.3,573.08,1180.2,574.15,1183,573.91Zm222.28,53.28a253.8,253.8,0,0,1-34.52-4.64,265.85,265.85,0,0,1-39.89-11.77c-.91-.35-1.74-1-2.63.32-8,12.31-17.73,23.33-27,34.67-4.51,5.52-9.14,11-13.72,16.43l.39.82C1328.46,655.58,1366.61,640.64,1405.32,627.19Zm134.08-305c-1-.5-1.94-1.05-3-1.5-22.67-10.12-46.68-16.4-70.51-23.21-1.5-.43-1.84.28-2,1.41-.34,2-.6,4-1.06,6-3,12.89-6.91,25.54-10.91,38.17-1.1,3.48-2.18,7-3.41,10.9C1478.11,340.48,1508.75,331.69,1539.4,322.17ZM1351.92,532c-3,1.27-5.55,2.39-8.13,3.39-21.17,8.17-42.8,15.15-64.37,22.27-3,1-3,1-1,3.33,12,14.22,26.7,25,43.58,33.18,2.39,1.16,3.43.67,4.72-1.37a213.51,213.51,0,0,0,25.24-60.8Zm-44.35,68.53c-1.76-1-3-1.71-4.29-2.45-13.41-7.79-25.62-17.14-37.39-27-2.87-2.42-2.82-2.45-5.43.78l-44.77,55.62c-.94,1.16-1.65,2.19-.49,3.78s2.4,1.06,3.82.56q32.63-11.5,65.26-23C1291.87,606.14,1299.44,603.42,1307.57,600.53Zm119.09-46.63c-2.1-.68-4.24-1.31-6.33-2.06-16.93-6.07-33-14-49-21.94-2.12-1.07-2.85-.71-3.78,1.3-3,6.61-6.32,13.13-9.52,19.68l-17.13,35.2c-.28.58-1,1.23-.44,1.85s1.34.31,2,.17a75.16,75.16,0,0,0,7.33-1.75c26.27-8.37,51.07-20.07,76-31.49C1426.15,554.68,1426.58,554.56,1426.66,553.9Zm-46.47-115.85,1.88-.64c29.88-9.9,60.07-18.89,90.17-28.15,5.2-1.6,5.2-1.51,1.37-5.54-10.78-11.35-24.12-19.24-38-26.45-1.31-.68-1.93-.32-2.73.76-9.43,12.67-20.3,24.19-30.84,36C1395,421.9,1387.82,429.67,1380.19,438.05Zm-127.65,127.1c-11.79,3.13-23.07,5.92-34.41,8.46a297.85,297.85,0,0,1-32.27,5.79c-6.53.72-6.57-.48-5.55,6.28.13.83.18,1.67.36,2.49,3.47,16.11,13.56,27.74,26.86,37.21a1.61,1.61,0,0,0,2.6-.41c2-2.58,4-5.1,6-7.66,11.15-14.55,22.45-29,32.33-44.39A31.29,31.29,0,0,0,1252.54,565.15Zm53.47,98c2.25,1,3.93,1.8,5.7,2.41,15,5.14,30.64,7.44,46.3,9.65,9.45,1.34,19,2.27,28.45,3.28,2.69.29,4-.37,5.14-2.52,5.11-9.33,8.86-19.21,12.8-29,1.73-4.28,3.28-8.61,5.13-13.49C1375.81,646.72,1341.51,655.79,1306,663.12Zm8.21-52.3-.39-.55-91.2,23.9a66.89,66.89,0,0,0,14.93,10.11c12.94,6.66,26.76,10.82,41.12,13.47,2.18.4,3.49,0,4.76-1.86,6.83-10.17,13.8-20.25,20.72-30.37Zm7.11-134.88c-10.45,24.91-25.16,47.58-38.73,71.31,14.51-4.36,28.35-9,41.91-14.52a242.2,242.2,0,0,0,28.6-13.47c.91-.52,2.33-.91.65-2.25a120.86,120.86,0,0,1-12.53-12.15C1333.15,496.18,1326,486.89,1321.33,475.94Zm117.39,25c-.11-2.08-.28-5.61-.45-9.14-.13-2.5-.51-2.71-2.74-1.47-7.46,4.16-14.88,8.41-22.41,12.46-11.33,6.1-22.61,12.3-34.63,17.11-1.34.53-1.49,1-.22,1.77,1.53,1,3,2,4.5,3,13.46,8.81,27.52,16.49,43.07,21.38,5,1.58,5,1.59,6.5-3.38A153.67,153.67,0,0,0,1438.72,501Zm-61.92,9.35c8.9-4.25,17.45-8.22,25.9-12.38,9.69-4.78,19.45-9.47,28.45-15.44,2.48-1.65,2.43-1.7,0-3.12l-45.56-26.26c-1-.54-2-1.74-3-1.27-1.2.6-.49,2.15-.49,3.26C1382.13,473.48,1382.18,491.85,1376.8,510.32Zm-15.83-279c4.54.1,4.76-.13,4.24-3.35-.14-.91-.23-1.83-.45-2.73-2.51-10.36-6.48-20.25-10.28-30.2-.78-2.05-1.58-2.53-3.76-1.55-16.27,7.27-32.61,14.4-48.9,21.62-2.69,1.19-5.29,2.56-7.93,3.84-.55.27-1.26.51-1.19,1.19s.9.73,1.45.89c1.58.45,3.18.87,4.79,1.2,13.43,2.8,27,4.58,40.61,6.48C1347,229.8,1354.54,230.59,1361,231.36Zm94.89,65.74-60.82,38c1.83.72,3.35,1.27,4.84,1.9a318.69,318.69,0,0,1,31.65,16.09c1.83,1,2.58.73,3.55-1a213.75,213.75,0,0,0,13-25.91C1451.78,317,1455,307.56,1455.86,297.1Zm-86,173.21a91.44,91.44,0,0,0-1-13.33c-.2-1.62-.56-2-2.21-1.36q-18,7.2-36,14.27c-1.21.48-1.63,1-1,2.24,6.88,14.45,16.18,27.06,29.42,36.76,2,1.45,2.72,1.12,3.58-1.07A106.07,106.07,0,0,0,1369.81,470.31Zm72.8-175.79a10.57,10.57,0,0,0-1.39-.49q-30.72-6.18-61.46-12.32c-.75-.15-1.68-.77-2.21-.15-.69.79.34,1.49.7,2.18,5.27,10.14,7.9,20.75,6.62,32.19-.39,3.47-1.35,6.83-1.94,10.65Zm-78.16-54.81c-27-3.28-53.11-9.48-79.66-14.84a11.71,11.71,0,0,0,.75,1.11c10.42,12,21.94,23,33.13,34.34a3.78,3.78,0,0,0,2.6.93,19.12,19.12,0,0,0,12.5-3.1C1343.81,251.8,1354.13,245.87,1364.45,239.71Zm-63.2,241.56c-.84.26-1.18.33-1.49.46-13.3,5.67-26,12.42-39,18.72-1.38.66-1.48,1.71-1.43,2.94a154.28,154.28,0,0,0,2.28,21.54,62.57,62.57,0,0,0,5,16.42c.85,1.7,1.64,2,2.87.32.79-1.11,1.78-2.07,2.62-3.15,8.45-10.84,14.41-23,20.1-35.32C1295.42,496.15,1298.47,489,1301.25,481.27Zm74.32-164.38h.45c-.34-4.78-.51-9.58-1.06-14.34a55.51,55.51,0,0,0-5.44-19.38c-.88-1.69-1.62-2-3.25-.61-11.83,9.93-23.73,19.77-35.6,29.64-.38.32-1,.6-.79,1.18s.86.44,1.33.58c4,1.18,8,2.25,12,3.57q15,5,30,10.29c1.83.63,2.52.4,2.45-1.59C1375.49,323.12,1375.57,320,1375.57,316.89Zm41.61,61.3c-.59.31-1.2.61-1.79.93-12.05,6.75-24.18,13.36-36.52,19.61-7.17,3.63-14.38,7.19-21.55,10.81-.54.28-1.92.31-1.08,1.46,4.16,5.77,5.26,12.58,7,19.15,1.06,4,1.72,8.18,2.67,12.78C1383,421,1400.25,399.8,1417.18,378.19ZM1274.92,482.84l.27.38c3.23-1.62,6.44-3.29,9.71-4.85,21-10.09,42.39-19.6,63.73-29.1,7-3.14,7.12-3.15,5.93-10.56a24.11,24.11,0,0,0-7.79-14.53c-.62-.56-1.1-1.31-2.08-.27-6.2,6.52-13.18,12.25-20.09,18q-15.49,13-31.11,25.82C1287.34,472.83,1281.11,477.82,1274.92,482.84ZM1361.07,278c-17.65-2.5-34.56-4.91-51.48-7.25-1.07-.15-2.56-1-3.19-.21-.75.93.45,2.15.88,3.19,4.38,10.54,9.08,21,12,32,.59,2.28,1.14,1.85,2.58.8,7.41-5.44,14.89-10.81,22.33-16.21C1349.63,286.38,1355.09,282.37,1361.07,278Zm30,170.43c.15.67.75.76,1.17,1,7.82,4.38,15.63,8.79,23.5,13.1,6.27,3.43,12.62,6.76,19.13,9.76,2.64,1.22,2.84,1.09,2.86-1.79,0-1.93,0-3.87,0-5.81a140.07,140.07,0,0,0-2.35-28.6c-.35-1.82-.9-2.32-2.88-1.66-12.63,4.26-25.32,8.38-38,12.58C1393.37,447.41,1392,447.46,1391.09,448.44Zm-61.91-73.3a12.24,12.24,0,0,0,1.24-.86q16.72-15.43,33.46-30.86c1.27-1.16.83-1.8-.46-2.41-2.74-1.28-5.42-2.68-8.21-3.85a213,213,0,0,0-27.43-8.89c-1.65-.44-2-.16-1.61,1.47a38.81,38.81,0,0,1,1,6.22c.93,12.09,1.63,24.19,1.66,36.33A5.06,5.06,0,0,0,1329.18,375.14Zm89.42-9.69c-.78-.44-1.21-.7-1.66-.94q-14.79-7.74-29.58-15.49c-4.53-2.39-4.51-2.44-5.53,2.35-2.32,11-6.15,21.54-9.78,32.15-.87,2.55-1.77,5.08-2.79,8Zm-48.08-12.74c-1.22.83-1.87,1.22-2.45,1.69l-24.68,19.84c-4.14,3.34-8.31,6.65-12.41,10-.72.59-2.29,1.23-.51,2.44,6,4.13,11.68,8.77,17.31,13.39,1.48,1.21,2,.74,3-.53a106.36,106.36,0,0,0,12.82-24.2A148.75,148.75,0,0,0,1370.52,352.71Zm-68.84-95.59c0-.24.09-.36,0-.4l-23.58-27c-.59-.67-1.22-1-2-.38-5.44,3.93-11,7.7-15.37,12.83-1.7,2-1.34,3.17,1.08,4.27a73.82,73.82,0,0,0,10.36,3.4C1281.92,252.67,1291.8,254.87,1301.68,257.12Zm80.13,12.48c-3.37-7.76-6.56-15.1-9.73-22.45-.63-1.49-1.48-.71-2.25-.25q-6.8,4-13.56,8l-14.41,8.62Zm-50.53,158.69a4.12,4.12,0,0,0-2.42.72A172.21,172.21,0,0,0,1299,447c-4.73,3.55-9.77,6.8-13.59,11.35-3.35,4-6.46,8.15-9.66,12.24s-6.57,8.38-9.85,12.58l.31.23Zm-24.64,3.58c.35,0,.54.06.64,0,9.71-6.1,18.56-13.28,27.42-20.44,1.15-.93,1.07-1.72,0-2.68-3-2.74-6.71-4.44-10.48-6-1.56-.64-2.33-.25-2.92,1.28a103.24,103.24,0,0,1-6.38,13C1312.15,421.91,1309.43,426.86,1306.64,431.87Zm.77-133.88c-2.68-8.57-5.42-17.13-8-25.73a4.17,4.17,0,0,0-3-3.06c-6.77-2.16-13.5-4.41-20.26-6.61-.29-.09-.7-.51-1,0C1287,273.4,1296.94,285.88,1307.41,298Z" transform="translate(-714.23 -45.73)"/><path class="cls-1" d="M927.92,653.85h-5.29V619.37c0-1.37,0-2.88.11-4.56s.19-3.48.34-5.44H923c-.25,1.14-.49,2.13-.71,3a17.16,17.16,0,0,1-.65,2l-15.52,39.5h-2.6L888,614.63c-.21-.57-.43-1.3-.66-2.18s-.47-1.91-.7-3.08h-.13c.09,1,.15,2.37.19,4s.07,3.68.07,6v34.41h-5.14v-51.4h7l13.93,35.84c.55,1.36,1,2.56,1.35,3.59a22.87,22.87,0,0,1,.74,2.58h.19c.47-1.41.88-2.64,1.24-3.7s.67-1.92.95-2.61l14.22-35.7h6.65Z" transform="translate(-714.23 -45.73)"/><path class="cls-1" d="M941.83,608.36a3.41,3.41,0,0,1-2.66-1.2,4.58,4.58,0,0,1,0-5.91,3.55,3.55,0,0,1,5.32,0,4.62,4.62,0,0,1,0,5.91A3.44,3.44,0,0,1,941.83,608.36Zm2.53,45.49h-5.19V617.14h5.19Z" transform="translate(-714.23 -45.73)"/><path class="cls-1" d="M977.68,651.66a17.19,17.19,0,0,1-4.5,2.31,15.7,15.7,0,0,1-4.91.74,14.54,14.54,0,0,1-11.23-4.8q-4.38-4.81-4.38-13.63t4.42-14.48q4.41-5.52,12.14-5.52A16.62,16.62,0,0,1,974,617a17.39,17.39,0,0,1,4.58,2.23l-2.19,4.3a14.47,14.47,0,0,0-3.55-1.69,12.74,12.74,0,0,0-3.8-.53,9.41,9.41,0,0,0-8.2,4.05A17.45,17.45,0,0,0,958,635.6q0,6.89,3,10.51a9.61,9.61,0,0,0,7.75,3.62,10.42,10.42,0,0,0,3.24-.56,13.27,13.27,0,0,0,3.41-1.74Z" transform="translate(-714.23 -45.73)"/><path class="cls-1" d="M1000.83,622.16a7.77,7.77,0,0,0-1.07-.3,6.72,6.72,0,0,0-1.21-.09,7,7,0,0,0-6.24,3.81,18.39,18.39,0,0,0-2.28,9.56v18.71h-5.19V617.14H990v7.28h.13a12.15,12.15,0,0,1,3.39-5.9,7.67,7.67,0,0,1,5.26-2,9.86,9.86,0,0,1,1.66.11,5.86,5.86,0,0,1,1.22.32Z" transform="translate(-714.23 -45.73)"/><path class="cls-1" d="M1021,654.71a14.21,14.21,0,0,1-11.49-5.15q-4.29-5.13-4.29-13.63,0-9.23,4.44-14.41t12.1-5.24q7.24,0,11.32,5.06t4.07,14q0,8.82-4.39,14.09A14.51,14.51,0,0,1,1021,654.71Zm.38-5a9,9,0,0,0,7.74-3.71q2.72-3.7,2.71-10.48t-2.72-10.63a9,9,0,0,0-7.73-3.71,9.38,9.38,0,0,0-7.92,3.87q-2.91,3.87-2.92,10.61,0,6.52,3,10.29A9.49,9.49,0,0,0,1021.33,649.76Z" transform="translate(-714.23 -45.73)"/><path class="cls-1" d="M1042.36,651.09l2.47-4.52A18.59,18.59,0,0,0,1049,649a11.87,11.87,0,0,0,4.37.8,7.81,7.81,0,0,0,5.05-1.4,5.08,5.08,0,0,0,1.73-4.19,5.25,5.25,0,0,0-1.54-3.82,10.78,10.78,0,0,0-4.8-2.49q-6.07-1.75-8.33-4.43a9.85,9.85,0,0,1-2.25-6.57,10.31,10.31,0,0,1,3-7.55q3-3,8.4-3a15.86,15.86,0,0,1,4.94.76,16.44,16.44,0,0,1,4.78,2.58l-2.31,4.44a17.1,17.1,0,0,0-4-2.2,10.48,10.48,0,0,0-3.56-.63,7.54,7.54,0,0,0-4.78,1.31,4.53,4.53,0,0,0-1.65,3.78,4.35,4.35,0,0,0,1.69,3.73,18.35,18.35,0,0,0,5.47,2.36,16.14,16.14,0,0,1,7.39,4.21,10.14,10.14,0,0,1,2.46,7.08,10.42,10.42,0,0,1-3.19,8q-3.18,3-8.72,3a17.67,17.67,0,0,1-5.72-.93A18.1,18.1,0,0,1,1042.36,651.09Z" transform="translate(-714.23 -45.73)"/><path class="cls-1" d="M1086.48,654.71a14.19,14.19,0,0,1-11.48-5.15q-4.29-5.13-4.29-13.63,0-9.23,4.43-14.41t12.1-5.24q7.24,0,11.32,5.06t4.07,14q0,8.82-4.38,14.09A14.55,14.55,0,0,1,1086.48,654.71Zm.38-5a9,9,0,0,0,7.74-3.71q2.72-3.7,2.71-10.48t-2.72-10.63a9,9,0,0,0-7.73-3.71,9.38,9.38,0,0,0-7.92,3.87Q1076,629,1076,635.71q0,6.52,2.94,10.29A9.52,9.52,0,0,0,1086.86,649.76Z" transform="translate(-714.23 -45.73)"/><path class="cls-1" d="M1126.42,604.31a11.21,11.21,0,0,0-1.6-.46,7.34,7.34,0,0,0-1.5-.15,4.78,4.78,0,0,0-4,1.61,7.42,7.42,0,0,0-1.3,4.74v7.09h7.6v5h-7.6v31.69h-5.17V622.16h-5.54v-5h5.54v-7.38c0-3.47.94-6.17,2.82-8.12a10.24,10.24,0,0,1,7.73-2.92,11.34,11.34,0,0,1,2.19.2,13,13,0,0,1,2,.59Z" transform="translate(-714.23 -45.73)"/><path class="cls-1" d="M1146.69,653.42a14.52,14.52,0,0,1-2.61.91,12.77,12.77,0,0,1-2.9.31,7.58,7.58,0,0,1-6.07-2.57c-1.46-1.7-2.2-4.23-2.2-7.58V622.16h-5.57v-5h5.57v-9l5.2-1.9v10.86h8.17v5h-8.17v21.65a8.05,8.05,0,0,0,1,4.55,3.44,3.44,0,0,0,3,1.4,6.57,6.57,0,0,0,1.83-.25,7.77,7.77,0,0,0,1.49-.57Z" transform="translate(-714.23 -45.73)"/><path class="cls-1" d="M875.66,788.3,882.5,776a47,47,0,0,0,11.55,5.71,39.54,39.54,0,0,0,11.8,1.66q7.8,0,12.25-3.46t4.47-9.91q0-5.88-3.71-9.23t-12.63-6.17q-14-4.17-20.51-10.47t-6.52-17.06a25.14,25.14,0,0,1,8.45-19.34q8.46-7.72,23-7.73a52.51,52.51,0,0,1,24.75,6.13l-6,12.53a43.41,43.41,0,0,0-9.84-4.08,37.29,37.29,0,0,0-9.65-1.27q-7.15,0-11.24,3.23a10.93,10.93,0,0,0-4.08,9.1,9.88,9.88,0,0,0,3.73,8.19q3.73,3,12.92,5.9,14.24,4.25,20.47,10.83t6.24,18q0,12.33-8.51,20.23t-24.28,7.89a56.6,56.6,0,0,1-15.42-2.12A52.85,52.85,0,0,1,875.66,788.3Z" transform="translate(-714.23 -45.73)"/><path class="cls-1" d="M992.9,796.72q-19.38,0-31.37-13.08t-12-34.09q0-22.44,12.15-36T994.36,700q19,0,30.67,13.05t11.61,34.38a64.68,64.68,0,0,1-3.92,23.22A37.53,37.53,0,0,1,1021.2,787l16.08,13.18-10.89,11.41L1008,794.7a53.36,53.36,0,0,1-7.28,1.47A59.49,59.49,0,0,1,992.9,796.72Zm.82-82.72q-12.6,0-20.29,9.49t-7.69,25q0,15.53,7.53,24.92a24.19,24.19,0,0,0,19.82,9.4q12.85,0,20.13-9t7.28-25.05q0-16.56-7.06-25.67T993.72,714Z" transform="translate(-714.23 -45.73)"/><path class="cls-1" d="M1105.14,795.15h-50.52V701.61H1070v80.17h35.14Z" transform="translate(-714.23 -45.73)"/><path class="cls-1" d="M1147.8,788.3l6.84-12.26a47.22,47.22,0,0,0,11.56,5.71,39.54,39.54,0,0,0,11.8,1.66q7.79,0,12.25-3.46t4.46-9.91q0-5.88-3.7-9.23t-12.63-6.17q-14-4.17-20.51-10.47t-6.52-17.06a25.14,25.14,0,0,1,8.45-19.34q8.46-7.72,23-7.73a53.41,53.41,0,0,1,12.6,1.5,52.7,52.7,0,0,1,12.15,4.63l-6,12.53a43.79,43.79,0,0,0-9.84-4.08,37.36,37.36,0,0,0-9.66-1.27q-7.15,0-11.23,3.23a10.91,10.91,0,0,0-4.09,9.1,9.89,9.89,0,0,0,3.74,8.19q3.73,3,12.91,5.9,14.25,4.25,20.48,10.83t6.24,18q0,12.33-8.52,20.23t-24.28,7.89a56.53,56.53,0,0,1-15.41-2.12A52.91,52.91,0,0,1,1147.8,788.3Z" transform="translate(-714.23 -45.73)"/><path class="cls-1" d="M1282.14,765h-45.33q.45,9.72,5.48,14.81t14.21,5.09a27.83,27.83,0,0,0,8.39-1.54,33.6,33.6,0,0,0,9.52-5l6.71,9.72a42.55,42.55,0,0,1-26.71,8.75q-15.45,0-24.06-9.2t-8.67-25.77q0-16.44,8.93-26.58t22.85-10.15q13.43,0,21,8.65t7.63,24.49Zm-14.44-10.7q-.06-8.81-3.79-13.31t-10.58-4.5a14.41,14.41,0,0,0-10.95,4.83q-4.5,4.83-5.51,13Z" transform="translate(-714.23 -45.73)"/><path class="cls-1" d="M1334.3,739.77c-.84-.22-1.67-.39-2.47-.52a17.5,17.5,0,0,0-2.78-.2,14.1,14.1,0,0,0-12.25,6.17q-4.33,6.16-4.34,16.14v33.79h-15.13V726.72h15.13V739.9h.25q2.28-7.11,6.84-10.73a16.74,16.74,0,0,1,10.76-3.62,24,24,0,0,1,3.17.19,19.81,19.81,0,0,1,2.78.59Z" transform="translate(-714.23 -45.73)"/><path class="cls-1" d="M1405.07,726.72l-25.7,68.43H1363.1l-24.43-68.43h16.27L1369.43,773c.59,2.09,1.09,4,1.49,5.84a36.85,36.85,0,0,1,.79,4.92h.26a41.13,41.13,0,0,1,.82-5.09c.38-1.69.86-3.45,1.46-5.28l15-46.71Z" transform="translate(-714.23 -45.73)"/><path class="cls-1" d="M1472.43,765H1427.1q.45,9.72,5.48,14.81t14.21,5.09a27.78,27.78,0,0,0,8.39-1.54,33.64,33.64,0,0,0,9.53-5l6.71,9.72a42.55,42.55,0,0,1-26.72,8.75q-15.45,0-24-9.2T1412,761.82q0-16.44,8.93-26.58t22.85-10.15q13.43,0,21,8.65t7.63,24.49ZM1458,754.25q-.07-8.81-3.8-13.31t-10.57-4.5a14.41,14.41,0,0,0-11,4.83q-4.49,4.83-5.5,13Z" transform="translate(-714.23 -45.73)"/><path class="cls-1" d="M1524.59,739.77c-.84-.22-1.67-.39-2.47-.52a17.5,17.5,0,0,0-2.78-.2,14.1,14.1,0,0,0-12.25,6.17q-4.33,6.16-4.34,16.14v33.79h-15.13V726.72h15.13V739.9h.26q2.28-7.11,6.83-10.73a16.76,16.76,0,0,1,10.76-3.62,24,24,0,0,1,3.17.19,19.81,19.81,0,0,1,2.78.59Z" transform="translate(-714.23 -45.73)"/><circle class="cls-2" cx="512.5" cy="512.5" r="495"/></svg>