<svg id="Layer_1" data-name="Layer 1" xmlns="http://www.w3.org/2000/svg" viewBox="0 0 520 520"><defs><style>.cls-1{fill:none;stroke:#fff;stroke-miterlimit:10;stroke-width:20px;}.cls-2{fill:#fff;}</style></defs><circle class="cls-1" cx="260" cy="260" r="250"/><path class="cls-2" d="M378.77,215.45c-4-9.86-11.24-15.84-21.25-16.91-8.41-.9-16.87-.18-25.31-.33-1.52,0-1.06,1.2-1.06,2,0,7.13,0,14.25,0,21.38,0,4.19,0,8.32-1.09,12.49-2.13,8.15-5.35,15.33-11.33,21.1a38,38,0,0,1-27.95,11c-19-.15-38.08,0-57.12-.07a29,29,0,0,0-20.82,8.07,33.55,33.55,0,0,0-10.63,25c-.06,19.29.08,38.58-.07,57.87a29.36,29.36,0,0,0,6.38,18.42c4.51,6,10.61,9.46,17.14,12.19a92.11,92.11,0,0,0,37.32,7.4c15.87-.28,31.3-3.13,45.49-11.62a31.68,31.68,0,0,0,13.66-16.15,26.47,26.47,0,0,0,1.34-9.72c0-7-.07-13.91,0-20.86,0-2-.4-2.57-2.3-2.56-17.85.09-35.69.06-53.54.06-4.81,0-4.71,0-4.85-5.25-.06-2.13.42-2.77,2.45-2.76,14.89.1,29.79,0,44.69,0,14.41,0,28.83,0,43.25,0,11,0,19.16-5.14,24.39-15.74a103.39,103.39,0,0,0,6.62-16.78C392.06,267,389.11,240.81,378.77,215.45ZM297,350.39c6.46.06,11.18,5.25,11.09,12.19-.09,6.7-5,11.82-11.29,11.83-5.12,0-11.4-5.46-11.39-12.18C285.39,355.71,291.93,349.9,297,350.39Z"/><path class="cls-2" d="M317.46,162c0-7-1.28-13.44-5.49-19-2.55-3.39-5.18-6.62-8.6-8.94-7.11-4.81-15-6.66-23.24-7.66-19-2.31-38-2.1-56.84,1.72a48.84,48.84,0,0,0-16.16,6c-7.1,4.39-10,11.81-10.69,20.22-.72,9.09-.13,18.24-.32,27.36-.05,2.24.62,2.68,2.54,2.67,17.77-.08,35.53,0,53.3,0,4.9,0,4.77,0,4.94,5.43.08,2.32-.68,2.59-2.54,2.58-13.7-.08-27.4,0-41.1,0H176a50,50,0,0,0-8.11.48c-13.51,2.2-23.53,9.61-29.39,23.3-2.7,6.3-3.45,13.22-5.17,19.83-1.47,5.67-1.67,11.64-1.91,17.55-.55,13.95,2.42,27.29,6,40.49a40.55,40.55,0,0,0,8.79,16.62c5,5.62,10.95,8.83,18,9.55,7.47.76,15,.12,22.45.37,1.77.05,2.31-.43,2.28-2.43-.1-8.6-.13-17.2,0-25.81.12-9.84,2.89-18.49,9.22-25.89,8.24-9.63,18.25-14,30.15-14,19.92,0,39.83.17,59.75-.08,12.31-.16,21-7.18,26.77-18.71,2.15-4.32,2.63-9.21,2.62-14.15C317.41,200.18,317.38,181.06,317.46,162Zm-94.73,6.23c-6.43-.07-11.2-5.26-11.15-12.13s4.91-11.92,11.38-11.87,11.24,5.27,11.2,12.12S229.15,168.25,222.73,168.18Z"/></svg>