<svg xmlns="http://www.w3.org/2000/svg" xmlns:xlink="http://www.w3.org/1999/xlink" version="1.1" width="256" height="256" viewBox="0 0 256 256" xml:space="preserve">

<defs>
</defs>
<g style="stroke: none; stroke-width: 0; stroke-dasharray: none; stroke-linecap: butt; stroke-linejoin: miter; stroke-miterlimit: 10; fill: none; fill-rule: nonzero; opacity: 1;" transform="translate(1.4065934065934016 1.4065934065934016) scale(2.81 2.81)" >
	<path d="M 82.174 9.757 c -5.934 -1.927 -12.337 1.332 -14.267 7.269 l -5.072 15.611 l -5.072 -15.611 c -1.929 -5.937 -8.326 -9.198 -14.267 -7.269 c -5.937 1.929 -9.198 8.329 -7.269 14.267 l 5.193 15.984 l -13.565 -9.856 c -5.05 -3.667 -12.145 -2.545 -15.815 2.505 c -3.669 5.05 -2.545 12.145 2.505 15.814 l 13.268 9.64 H 11.322 C 5.079 58.11 0 63.189 0 69.432 c 0 6.243 5.079 11.322 11.322 11.322 h 51.32 v -0.105 c 0.056 0.001 0.112 0.006 0.167 0.006 c 0.363 0 0.723 -0.023 1.082 -0.058 l 0 0.004 c 0.001 0 0.002 0 0.003 -0.001 h 0.001 c 0.089 -0.008 0.178 -0.018 0.267 -0.029 c 0.078 -0.01 0.154 -0.023 0.23 -0.034 c 0.188 -0.027 0.375 -0.061 0.561 -0.097 l 0.002 0.009 c 0.058 -0.011 0.116 -0.022 0.174 -0.035 c 0.064 -0.013 0.126 -0.032 0.19 -0.046 c 0.093 -0.021 0.185 -0.044 0.277 -0.068 c 0.081 -0.021 0.163 -0.037 0.244 -0.06 l -0.002 -0.008 c 0.046 -0.013 0.092 -0.025 0.138 -0.039 l 0.003 0.01 l 0.104 -0.027 c 0.093 -0.022 0.185 -0.047 0.271 -0.075 c 0.221 -0.072 0.426 -0.17 0.64 -0.254 c 0.059 -0.024 0.119 -0.046 0.178 -0.07 c 3.152 -1.299 5.521 -3.92 6.503 -7.216 l 15.77 -48.537 C 91.372 18.086 88.111 11.687 82.174 9.757 z M 38.129 23.406 c -1.588 -4.889 1.097 -10.158 5.985 -11.746 c 0.948 -0.308 1.921 -0.461 2.891 -0.461 c 1.45 0 2.892 0.343 4.222 1.021 c 2.219 1.13 3.864 3.057 4.634 5.425 l 5.923 18.23 l -9.734 29.96 c -0.022 0.069 -0.045 0.139 -0.066 0.209 l -7.809 -24.035 l -0.001 0 L 38.129 23.406 z M 13.658 33.833 c 1.822 -2.508 4.668 -3.839 7.554 -3.839 c 1.899 0 3.816 0.578 5.467 1.777 l 15.792 11.474 l 9.366 28.824 c 0.112 0.447 0.244 0.89 0.411 1.324 L 15.721 46.854 C 11.562 43.832 10.637 37.991 13.658 33.833 z M 2 69.432 c 0 -5.14 4.182 -9.321 9.322 -9.321 h 19.244 l 25.498 18.525 l 0.101 -0.138 c 0.023 0.017 0.048 0.031 0.071 0.047 c 0.102 0.072 0.207 0.139 0.311 0.208 H 11.322 C 6.182 78.754 2 74.572 2 69.432 z M 87.541 23.405 L 71.909 71.518 l -0.001 0 l -0.226 0.696 c -0.112 0.343 -0.246 0.675 -0.394 0.999 c -0.038 0.084 -0.083 0.163 -0.123 0.245 c -0.119 0.24 -0.244 0.475 -0.382 0.702 c -0.052 0.087 -0.108 0.171 -0.163 0.256 c -0.142 0.218 -0.294 0.43 -0.453 0.635 c -0.058 0.074 -0.115 0.15 -0.175 0.222 c -0.188 0.226 -0.387 0.443 -0.594 0.65 c -0.039 0.039 -0.075 0.082 -0.115 0.12 c -0.247 0.238 -0.509 0.461 -0.781 0.671 c -0.077 0.059 -0.16 0.111 -0.239 0.168 c -0.196 0.142 -0.397 0.278 -0.604 0.404 c -0.114 0.07 -0.231 0.134 -0.349 0.199 c -0.189 0.104 -0.382 0.201 -0.579 0.292 c -0.121 0.056 -0.24 0.113 -0.363 0.164 c -0.248 0.102 -0.502 0.193 -0.761 0.274 c -1.347 0.425 -2.797 0.544 -4.251 0.313 l 0 -0.001 l -0.273 -0.044 l 0 0 c -0.254 -0.048 -0.508 -0.111 -0.761 -0.181 l 0 -0.002 l -0.098 -0.025 l 0 0.001 c -0.096 -0.028 -0.193 -0.047 -0.289 -0.078 c -0.35 -0.114 -0.687 -0.252 -1.015 -0.403 c -0.091 -0.042 -0.178 -0.088 -0.267 -0.133 c -0.247 -0.123 -0.489 -0.256 -0.723 -0.4 c -0.078 -0.048 -0.156 -0.095 -0.232 -0.145 c -0.291 -0.192 -0.574 -0.394 -0.841 -0.617 c -0.004 -0.003 -0.008 -0.006 -0.011 -0.009 c -0.589 -0.493 -1.115 -1.061 -1.567 -1.689 c -0.011 -0.016 -0.022 -0.031 -0.034 -0.047 c -0.666 -0.938 -1.166 -2.012 -1.468 -3.185 c -0.306 -1.232 -0.352 -2.5 -0.154 -3.733 c 0.013 -0.076 0.024 -0.152 0.039 -0.228 c 0.073 -0.39 0.164 -0.778 0.288 -1.158 l 9.936 -30.577 l 0 -0.001 l 5.923 -18.23 c 1.278 -3.935 4.942 -6.442 8.872 -6.442 c 0.953 0 1.921 0.147 2.875 0.457 C 86.444 13.248 89.13 18.517 87.541 23.405 z" style="stroke: none; stroke-width: 1; stroke-dasharray: none; stroke-linecap: butt; stroke-linejoin: miter; stroke-miterlimit: 10; fill: rgb(255,255,255); fill-rule: nonzero; opacity: 1;" transform=" matrix(1 0 0 1 0 0) " stroke-linecap="round" />
	<path d="M 53.129 20.597 c 0 -3.392 -2.76 -6.151 -6.151 -6.151 c -3.392 0 -6.151 2.759 -6.151 6.151 c 0 3.392 2.759 6.151 6.151 6.151 C 50.369 26.749 53.129 23.989 53.129 20.597 z M 42.826 20.597 c 0 -2.289 1.862 -4.151 4.151 -4.151 s 4.151 1.862 4.151 4.151 c 0 2.289 -1.862 4.151 -4.151 4.151 S 42.826 22.886 42.826 20.597 z" style="stroke: none; stroke-width: 1; stroke-dasharray: none; stroke-linecap: butt; stroke-linejoin: miter; stroke-miterlimit: 10; fill: rgb(255,255,255); fill-rule: nonzero; opacity: 1;" transform=" matrix(1 0 0 1 0 0) " stroke-linecap="round" />
	<path d="M 21.047 32.999 c -3.392 0 -6.151 2.759 -6.151 6.151 c 0 3.392 2.759 6.151 6.151 6.151 c 3.392 0 6.151 -2.759 6.151 -6.151 C 27.199 35.758 24.439 32.999 21.047 32.999 z M 21.047 43.301 c -2.289 0 -4.151 -1.862 -4.151 -4.151 c 0 -2.289 1.862 -4.151 4.151 -4.151 c 2.289 0 4.151 1.862 4.151 4.151 C 25.199 41.438 23.336 43.301 21.047 43.301 z" style="stroke: none; stroke-width: 1; stroke-dasharray: none; stroke-linecap: butt; stroke-linejoin: miter; stroke-miterlimit: 10; fill: rgb(255,255,255); fill-rule: nonzero; opacity: 1;" transform=" matrix(1 0 0 1 0 0) " stroke-linecap="round" />
	<path d="M 11.386 63.319 c -3.392 0 -6.151 2.76 -6.151 6.151 s 2.759 6.151 6.151 6.151 c 3.392 0 6.151 -2.76 6.151 -6.151 S 14.777 63.319 11.386 63.319 z M 11.386 73.622 c -2.289 0 -4.151 -1.862 -4.151 -4.151 s 1.862 -4.151 4.151 -4.151 c 2.289 0 4.151 1.862 4.151 4.151 S 13.674 73.622 11.386 73.622 z" style="stroke: none; stroke-width: 1; stroke-dasharray: none; stroke-linecap: butt; stroke-linejoin: miter; stroke-miterlimit: 10; fill: rgb(255,255,255); fill-rule: nonzero; opacity: 1;" transform=" matrix(1 0 0 1 0 0) " stroke-linecap="round" />
	<path d="M 62.871 63.134 c -3.392 0 -6.151 2.76 -6.151 6.151 s 2.76 6.151 6.151 6.151 s 6.151 -2.76 6.151 -6.151 S 66.263 63.134 62.871 63.134 z M 62.871 73.437 c -2.289 0 -4.151 -1.862 -4.151 -4.151 s 1.862 -4.151 4.151 -4.151 s 4.151 1.862 4.151 4.151 S 65.16 73.437 62.871 73.437 z" style="stroke: none; stroke-width: 1; stroke-dasharray: none; stroke-linecap: butt; stroke-linejoin: miter; stroke-miterlimit: 10; fill: rgb(255,255,255); fill-rule: nonzero; opacity: 1;" transform=" matrix(1 0 0 1 0 0) " stroke-linecap="round" />
	<path d="M 78.778 14.178 c -3.392 0 -6.151 2.759 -6.151 6.151 s 2.76 6.151 6.151 6.151 s 6.151 -2.759 6.151 -6.151 S 82.17 14.178 78.778 14.178 z M 78.778 24.48 c -2.289 0 -4.151 -1.862 -4.151 -4.151 s 1.862 -4.151 4.151 -4.151 s 4.151 1.862 4.151 4.151 S 81.067 24.48 78.778 24.48 z" style="stroke: none; stroke-width: 1; stroke-dasharray: none; stroke-linecap: butt; stroke-linejoin: miter; stroke-miterlimit: 10; fill: rgb(255,255,255); fill-rule: nonzero; opacity: 1;" transform=" matrix(1 0 0 1 0 0) " stroke-linecap="round" />
</g>
</svg>