<svg xmlns="http://www.w3.org/2000/svg" xmlns:xlink="http://www.w3.org/1999/xlink" version="1.1" width="256" height="256" viewBox="0 0 256 256" xml:space="preserve">

<defs>
</defs>
<g style="stroke: none; stroke-width: 0; stroke-dasharray: none; stroke-linecap: butt; stroke-linejoin: miter; stroke-miterlimit: 10; fill: none; fill-rule: nonzero; opacity: 1;" transform="translate(1.4065934065934016 1.4065934065934016) scale(2.81 2.81)" >
	<path d="M 77.988 22.94 c -0.006 -0.091 -0.023 -0.179 -0.054 -0.266 c -0.011 -0.032 -0.019 -0.063 -0.033 -0.094 c -0.048 -0.103 -0.108 -0.199 -0.191 -0.283 c -0.002 -0.002 -0.002 -0.003 -0.004 -0.005 L 55.708 0.294 c -0.001 -0.001 -0.003 -0.002 -0.004 -0.003 c -0.083 -0.082 -0.18 -0.143 -0.282 -0.19 c -0.032 -0.015 -0.064 -0.023 -0.098 -0.035 c -0.084 -0.029 -0.17 -0.046 -0.258 -0.052 C 55.042 0.012 55.023 0 55 0 H 19 c -3.86 0 -7 3.14 -7 7 v 76 c 0 3.859 3.14 7 7 7 h 52 c 3.859 0 7 -3.141 7 -7 V 23 C 78 22.979 77.989 22.961 77.988 22.94 z M 74.586 22 H 56 V 3.414 L 74.586 22 z M 76 83 c 0 2.757 -2.243 5 -5 5 H 19 c -2.757 0 -5 -2.243 -5 -5 V 7 c 0 -2.757 2.243 -5 5 -5 h 35 v 21 c 0 0.552 0.447 1 1 1 h 21 V 83 z" style="stroke: none; stroke-width: 1; stroke-dasharray: none; stroke-linecap: butt; stroke-linejoin: miter; stroke-miterlimit: 10; fill: rgb(255,255,255); fill-rule: nonzero; opacity: 1;" transform=" matrix(1 0 0 1 0 0) " stroke-linecap="round" />
	<circle cx="30" cy="49.5" r="2" style="stroke: none; stroke-width: 1; stroke-dasharray: none; stroke-linecap: butt; stroke-linejoin: miter; stroke-miterlimit: 10; fill: rgb(255,255,255); fill-rule: nonzero; opacity: 1;" transform="  matrix(1 0 0 1 0 0) "/>
	<rect x="38" y="36.5" rx="0" ry="0" width="25" height="2" style="stroke: none; stroke-width: 1; stroke-dasharray: none; stroke-linecap: butt; stroke-linejoin: miter; stroke-miterlimit: 10; fill: rgb(255,255,255); fill-rule: nonzero; opacity: 1;" transform=" matrix(1 0 0 1 0 0) "/>
	<rect x="38" y="48.5" rx="0" ry="0" width="25" height="2" style="stroke: none; stroke-width: 1; stroke-dasharray: none; stroke-linecap: butt; stroke-linejoin: miter; stroke-miterlimit: 10; fill: rgb(255,255,255); fill-rule: nonzero; opacity: 1;" transform=" matrix(1 0 0 1 0 0) "/>
	<rect x="38" y="60.5" rx="0" ry="0" width="25" height="2" style="stroke: none; stroke-width: 1; stroke-dasharray: none; stroke-linecap: butt; stroke-linejoin: miter; stroke-miterlimit: 10; fill: rgb(255,255,255); fill-rule: nonzero; opacity: 1;" transform=" matrix(1 0 0 1 0 0) "/>
	<circle cx="30" cy="37.5" r="2" style="stroke: none; stroke-width: 1; stroke-dasharray: none; stroke-linecap: butt; stroke-linejoin: miter; stroke-miterlimit: 10; fill: rgb(255,255,255); fill-rule: nonzero; opacity: 1;" transform="  matrix(1 0 0 1 0 0) "/>
	<circle cx="30" cy="61.5" r="2" style="stroke: none; stroke-width: 1; stroke-dasharray: none; stroke-linecap: butt; stroke-linejoin: miter; stroke-miterlimit: 10; fill: rgb(255,255,255); fill-rule: nonzero; opacity: 1;" transform="  matrix(1 0 0 1 0 0) "/>
</g>
</svg>