<svg id="Layer_1" data-name="Layer 1" xmlns="http://www.w3.org/2000/svg" viewBox="0 0 520 520"><defs><style>.cls-1{fill:none;stroke-width:20px;}.cls-1,.cls-2{stroke:#fff;stroke-miterlimit:10;}.cls-2{fill:#fff;}</style></defs><circle class="cls-1" cx="260" cy="260" r="250"/><path class="cls-2" d="M250.55,258.92a82.43,82.43,0,0,1-10.11-7.31,88.67,88.67,0,0,1-20.71-22.72,71.8,71.8,0,0,1-4.13-8.4,22.69,22.69,0,0,1-.83-17.69,43.86,43.86,0,0,1,7.21-12,73.63,73.63,0,0,1,15-14.3A265.29,265.29,0,0,1,259.8,162c6.59-3.75,13-7.67,18.45-12.62,6.35-5.77,9.56-12.83,11.25-20.48a42.87,42.87,0,0,0,.66-15.27c-.05-.36-.14-.71-.21-1.11.67-.14.8.34,1,.66,10,14.89,10.86,32-2.7,46.67-5.53,6-12.18,11-18.92,16-7.48,5.5-15.6,10.34-22.89,16a96.39,96.39,0,0,0-9,8.11c-3.68,3.74-4.42,8.23-3.92,13a67.77,67.77,0,0,0,3.85,17.36c3.57,9.24,7.34,18.44,12.45,27.18C250.06,257.92,250.29,258.43,250.55,258.92Z"/><path class="cls-2" d="M181,345.51c-6.06,1.26-12.2,2.29-18,4.32a20,20,0,0,0-5.43,2.59c-2.12,1.59-2,3,.46,4.21a44.71,44.71,0,0,0,11.67,3.26c7.46,1.36,15,2.35,22.58,3.05,10.27.95,20.56,1.65,30.88,2,12.14.45,24.28.57,36.42.25q20-.54,39.93-2.44a386.2,386.2,0,0,0,42.17-6,102.61,102.61,0,0,0,13-3.36,7.41,7.41,0,0,0,4.24-2.93,4.11,4.11,0,0,0,.12-3.59c3.61,2,4.34,5.41,1.91,8.19a14.47,14.47,0,0,1-4.87,3.3,104.56,104.56,0,0,1-20.24,6.48,285.52,285.52,0,0,1-32.91,5.46c-30.71,3.48-61.56,3.74-92.45,3-12.19-.3-24.37-.92-36.48-2.2-9.1-1-18.1-2.33-26.71-5.13a22.21,22.21,0,0,1-7.25-3.79,7.55,7.55,0,0,1-2.86-4.34q-.69-3.5,2.68-5.65c3.15-2,6.81-3,10.54-3.76a166.35,166.35,0,0,1,28.83-3.24C179.83,345.24,180.53,344.77,181,345.51Z"/><path class="cls-2" d="M214.25,263.59a132.6,132.6,0,0,0-22.09,5.8,13.89,13.89,0,0,0-5.12,3c-1.69,1.67-1.37,2.85,1.06,3.61a57.86,57.86,0,0,0,12.59,2c23.47,1.89,47,1.52,70.48.51a393.64,393.64,0,0,0,40.77-3.6c3.45-.51,6.87-1.18,10.51-1.82a25.19,25.19,0,0,1-4.19,2.44c-9.6,4.8-20.08,7.63-30.82,9.79-19.8,4-39.95,4.88-60.2,4.8a289.83,289.83,0,0,1-35-2c-7.71-1-15.27-2.49-22.31-5.5a13.58,13.58,0,0,1-5.16-3.62c-2.34-2.76-1.83-6.16,1.29-8.26,3.59-2.41,7.92-3.37,12.22-4.25,11-2.25,22.12-2.87,33.33-3.16C212.51,263.33,213.48,262.82,214.25,263.59Z"/><path class="cls-2" d="M272.27,269.89a50.2,50.2,0,0,0,4.15-10c.34-1.32.63-2.66.85-4,.64-4-.69-7.55-3.71-10.71A89.66,89.66,0,0,1,263.25,233a35.24,35.24,0,0,1-6.09-20.21,16.3,16.3,0,0,1,3.74-10.06c5.53-7.13,13-12.4,21.29-16.94a197.21,197.21,0,0,1,22.25-10.54c4.16-1.66,8.41-3.16,12.63-4.73a.71.71,0,0,1,.81,0,2.24,2.24,0,0,1-.34.42c-3.76,2.59-7.48,5.23-11.3,7.75a158.87,158.87,0,0,0-21.82,17.48,27.21,27.21,0,0,0-5.77,7.39c-2.58,5.06-2.26,10,.82,14.84,2.17,3.43,5.3,6.27,7.55,9.64a47.25,47.25,0,0,1,4.22,7.43,18.5,18.5,0,0,1-1,17,30.44,30.44,0,0,1-5.86,7.77A72.52,72.52,0,0,1,272.27,269.89Z"/><path class="cls-2" d="M308.28,338.46c-5.33,1.74-10.63,3.34-16.07,4.55a182.62,182.62,0,0,1-49.46,4,203.63,203.63,0,0,1-30.14-3.47A37.39,37.39,0,0,1,201,339.46c-2.31-1.37-4.18-3-4.55-5.58s.71-4.32,3-5.69c3.11-1.85,6.71-2.47,10.37-2.89.7-.09,1.42-.12,2.14-.18,0,.5-.47.7-.7,1-1.22,1.8-.6,3.48,1.71,4.12a75.09,75.09,0,0,0,11.09,2A233.8,233.8,0,0,0,253.31,334c8.93-.05,17.69-1.43,26.46-2.66,3.41-.47,6.81-1,10.2-1.52a3.51,3.51,0,0,1,2.32.4c4,2.12,8.06,4.18,12.08,6.28C305.62,337.14,307.09,337.47,308.28,338.46Z"/><path class="cls-2" d="M202.86,296.08c-.81.63-1.78,1.08-2.52,1.78-2,1.88-1.51,4.14,1.16,5.18a41.91,41.91,0,0,0,11.16,2.25,273.11,273.11,0,0,0,53-.05,308.31,308.31,0,0,0,33.24-4.82,2,2,0,0,1,1.54.1q6.3,3.69,12.62,7.35c.07,0,.08.16.2.41l-11.39,2.06q-19.11,3.41-38.5,5.29a226.75,226.75,0,0,1-33.07,1.16c-11.13-.57-22.19-1.68-32.75-5a31.49,31.49,0,0,1-7.62-3.19c-4.32-2.78-4.32-5.74.16-8.3C193.91,298.07,198.38,297.07,202.86,296.08Z"/><path class="cls-2" d="M333.29,264.21a55.39,55.39,0,0,1,16.45-4.53,33.43,33.43,0,0,1,14.59,1.13,18.83,18.83,0,0,1,4,1.87c6.21,3.84,9,9.3,10.22,15.55a16.51,16.51,0,0,1-4.8,15.38,50.34,50.34,0,0,1-14.11,9.95c-9.24,4.52-19.2,7.46-29.42,9.85a5.23,5.23,0,0,1-1,.09,1.88,1.88,0,0,1-.53-.13,178.81,178.81,0,0,0,21.06-14.66c4.56-3.66,8.59-7.62,11.31-12.43,3.72-6.58,1.71-12.68-5.38-16.77-4.46-2.58-9.58-3.61-14.75-4.47C338.47,264.63,335.91,264.41,333.29,264.21Z"/><path class="cls-2" d="M188.94,380.71c21.8.56,43.61,1,65.43,1,17.86,0,35.71-.22,53.54-1.26a184.67,184.67,0,0,0,41.54-6.88,98.63,98.63,0,0,0,23.09-9.62,26.64,26.64,0,0,0,3.44-2.21,8.9,8.9,0,0,1-2.34,4.76,38.93,38.93,0,0,1-10.43,8.22c-6.84,3.64-14.39,5.69-22.16,7.15-10.63,2-21.43,3.07-32.24,4a476.79,476.79,0,0,1-49.87,1.59q-23.33-.43-46.48-2.95c-8.54-.94-17-2.12-25.5-3.49C187.48,380.23,188.27,380.75,188.94,380.71Z"/><path class="cls-2" d="M214.25,263.59c-.81-.52-1.78,0-2.63-.29a26.43,26.43,0,0,1,4.77-.28A4.84,4.84,0,0,1,214.25,263.59Z"/><path class="cls-2" d="M181,345.51c-.52-.38-1.18-.06-1.74-.27A16.57,16.57,0,0,1,183,345c.32-.08.4,0,.26.26Z"/><path class="cls-2" d="M188.94,380.71c-.62.28-1.4-.18-2,.3l-1.65-.3A8,8,0,0,1,188.94,380.71Z"/><path class="cls-2" d="M183.21,345.23,183,345a2.05,2.05,0,0,1,1.76-.16A2.45,2.45,0,0,1,183.21,345.23Z"/></svg>