<svg id="Layer_1" data-name="Layer 1" xmlns="http://www.w3.org/2000/svg" viewBox="0 0 520 520"><defs><style>.cls-1{fill:none;stroke:#fff;stroke-miterlimit:10;stroke-width:20px;}.cls-2{fill:#fff;}</style></defs><circle class="cls-1" cx="260" cy="260" r="250"/><path class="cls-2" d="M341.4,260a8.9,8.9,0,0,0,0-1.46c-.33-2.34.83-3.11,3.42-3.05,7.84.17,6.66-.7,6.74,5.89,0,3.49,0,3.49-3.94,3.51h-.82C340.71,264.92,341.45,265.13,341.4,260Z" transform="translate(0 0)"/><path class="cls-2" d="M258.79,186.35c-2.42,10.53-4.73,20.64-7.12,31,10.27,0,20.23,0,30.2,0A87,87,0,0,1,298.31,219c16.63,3.26,23.78,11.91,20.78,26-4,18.63-8.4,37.19-12.53,55.8-.41,1.84-1.56,1.91-3.27,1.9-8.05,0-16.11-.13-24.16,0-2.84.06-3.38-.54-2.83-2.83,3.11-12.9,6.07-25.82,9-38.74,1-4.17,1.93-8.35,2.69-12.55,1.47-8.23-1.94-11.93-11.79-12.33-7.44-.3-14.91-.15-22.36-.17-6.61,0-6.6,0-7.81,5.29-4.41,19.29-8.88,38.56-13.16,57.87-.59,2.63-1.59,3.62-5,3.49-7.32-.28-14.67-.23-22,0-3.17.09-3.74-.59-3.13-3.14C207,282.05,211,264.45,215,246.87c4.48-19.38,9-38.75,13.4-58.14.44-1.92,1.16-2.45,3.4-2.42C240.7,186.41,249.59,186.35,258.79,186.35Z" transform="translate(0 0)"/><path class="cls-2" d="M423.14,221.77c-7.81-3.21-16.19-4.38-24.79-4.4-18.63-.06-37.26.06-55.88-.13-3.38,0-4.36.85-4.94,3.5-3.1,14.23-6.45,28.42-9.72,42.63-5.37,23.33-10.74,46.67-16.18,70.28,9.64,0,19.11,0,28.58,0,1.89,0,1.65-1.08,1.86-2,2.07-8.84,4.27-17.65,6.12-26.52.46-2.19,1.51-2.49,3.75-2.48,10,0,19.95.14,29.92-.14,12.53-.35,24.52-2.48,34.91-8.94,16.33-10.16,24.56-24,26-40.89C443.87,238.66,436.77,227.37,423.14,221.77Zm-16,46.64c-4.48,9.47-13.28,13.92-24.8,15.32a134.51,134.51,0,0,1-16.18.62c-3.37,0-6.74-.13-10.1,0-2.42.12-3.06-.46-2.57-2.49,2.09-8.63,4.05-17.28,6.05-25.92,1.35-5.86,2.74-11.72,4-17.6.41-1.89,1-2.93,3.8-2.81,10.17.46,20.44-.74,30.53,1.23,9.47,1.84,13.33,5.94,13.41,14.15A39.6,39.6,0,0,1,407.15,268.41Z" transform="translate(0 0)"/><path class="cls-2" d="M208.11,247.59c-.49-13.86-9.64-23.4-24.7-27.65a71.92,71.92,0,0,0-19.48-2.58c-18.63,0-37.25.06-55.88-.11-3.29,0-4.44.69-5,3.44-1.58,8-3.57,15.9-5.4,23.85-6.81,29.6-13.62,59.2-20.5,89.12,9.67,0,18.91-.05,28.15,0,1.86,0,2-.75,2.31-2,2-8.85,4.22-17.66,6.09-26.52.45-2.11,1.36-2.56,3.69-2.54,10,.06,19.95.13,29.92-.13s19.73-1.4,28.48-5.6C198.4,286.07,208.87,269.2,208.11,247.59Zm-35.45,20.84c-4.42,9.36-13.09,13.84-24.46,15.26-9.22,1.14-18.49.46-27.73.68-2.91.07-1.54-1.59-1.35-2.44,1.91-8.66,3.95-17.3,5.94-25.94,1.37-6,2.79-11.92,4.07-17.9.37-1.71,1-2.64,3.39-2.49,3.71.22,7.45.06,11.18.06,6.73,0,13.46-.18,20.08,1.18,8.86,1.82,12.81,5.89,13,13.53A39.33,39.33,0,0,1,172.66,268.43Z" transform="translate(0 0)"/></svg>