<svg xmlns="http://www.w3.org/2000/svg" xmlns:xlink="http://www.w3.org/1999/xlink" version="1.1" width="256" height="256" viewBox="0 0 256 256" xml:space="preserve">

<defs>
</defs>
<g style="stroke: none; stroke-width: 0; stroke-dasharray: none; stroke-linecap: butt; stroke-linejoin: miter; stroke-miterlimit: 10; fill: none; fill-rule: nonzero; opacity: 1;" transform="translate(1.4065934065934016 1.4065934065934016) scale(2.81 2.81)" >
	<path d="M 73.922 90 H 16.078 c -2.764 0 -5.013 -2.249 -5.013 -5.013 V 5.013 C 11.065 2.249 13.314 0 16.078 0 h 43.327 c 0.53 0 1.039 0.211 1.414 0.586 l 17.529 17.529 c 0.375 0.375 0.586 0.884 0.586 1.414 v 65.458 C 78.935 87.751 76.686 90 73.922 90 z M 16.078 4 c -0.559 0 -1.013 0.454 -1.013 1.013 v 79.975 c 0 0.559 0.455 1.013 1.013 1.013 h 57.844 c 0.559 0 1.013 -0.454 1.013 -1.013 V 20.358 L 58.577 4 H 16.078 z" style="stroke: none; stroke-width: 1; stroke-dasharray: none; stroke-linecap: butt; stroke-linejoin: miter; stroke-miterlimit: 10; fill: rgb(255,255,255); fill-rule: nonzero; opacity: 1;" transform=" matrix(1 0 0 1 0 0) " stroke-linecap="round" />
	<path d="M 76.935 21.529 H 62.15 c -2.616 0 -4.745 -2.128 -4.745 -4.745 V 2 c 0 -0.809 0.487 -1.538 1.234 -1.848 c 0.749 -0.31 1.607 -0.14 2.18 0.434 l 17.529 17.529 c 0.572 0.572 0.743 1.432 0.434 2.179 C 78.473 21.042 77.743 21.529 76.935 21.529 z M 61.405 6.829 v 9.956 c 0 0.411 0.334 0.745 0.745 0.745 h 9.956 L 61.405 6.829 z" style="stroke: none; stroke-width: 1; stroke-dasharray: none; stroke-linecap: butt; stroke-linejoin: miter; stroke-miterlimit: 10; fill: rgb(255,255,255); fill-rule: nonzero; opacity: 1;" transform=" matrix(1 0 0 1 0 0) " stroke-linecap="round" />
	<path d="M 65.084 79.535 H 24.916 c -1.104 0 -2 -0.896 -2 -2 v -9.641 c 0 -1.104 0.896 -2 2 -2 h 40.168 c 1.104 0 2 0.896 2 2 v 9.641 C 67.084 78.64 66.188 79.535 65.084 79.535 z M 26.916 75.535 h 36.168 v -5.641 H 26.916 V 75.535 z" style="stroke: none; stroke-width: 1; stroke-dasharray: none; stroke-linecap: butt; stroke-linejoin: miter; stroke-miterlimit: 10; fill: rgb(255,255,255); fill-rule: nonzero; opacity: 1;" transform=" matrix(1 0 0 1 0 0) " stroke-linecap="round" />
	<path d="M 65.084 69.895 H 24.916 c -1.104 0 -2 -0.896 -2 -2 v -9.641 c 0 -1.104 0.896 -2 2 -2 h 40.168 c 1.104 0 2 0.896 2 2 v 9.641 C 67.084 68.999 66.188 69.895 65.084 69.895 z M 26.916 65.895 h 36.168 v -5.641 H 26.916 V 65.895 z" style="stroke: none; stroke-width: 1; stroke-dasharray: none; stroke-linecap: butt; stroke-linejoin: miter; stroke-miterlimit: 10; fill: rgb(255,255,255); fill-rule: nonzero; opacity: 1;" transform=" matrix(1 0 0 1 0 0) " stroke-linecap="round" />
	<path d="M 65.084 60.254 H 24.916 c -1.104 0 -2 -0.896 -2 -2 v -9.64 c 0 -1.104 0.896 -2 2 -2 h 40.168 c 1.104 0 2 0.896 2 2 v 9.64 C 67.084 59.358 66.188 60.254 65.084 60.254 z M 26.916 56.254 h 36.168 v -5.64 H 26.916 V 56.254 z" style="stroke: none; stroke-width: 1; stroke-dasharray: none; stroke-linecap: butt; stroke-linejoin: miter; stroke-miterlimit: 10; fill: rgb(255,255,255); fill-rule: nonzero; opacity: 1;" transform=" matrix(1 0 0 1 0 0) " stroke-linecap="round" />
	<path d="M 45 79.535 c -1.104 0 -2 -0.896 -2 -2 V 48.614 c 0 -1.104 0.896 -2 2 -2 s 2 0.896 2 2 v 28.921 C 47 78.64 46.104 79.535 45 79.535 z" style="stroke: none; stroke-width: 1; stroke-dasharray: none; stroke-linecap: butt; stroke-linejoin: miter; stroke-miterlimit: 10; fill: rgb(255,255,255); fill-rule: nonzero; opacity: 1;" transform=" matrix(1 0 0 1 0 0) " stroke-linecap="round" />
</g>
</svg>